<svg xmlns="http://www.w3.org/2000/svg" xml:space="preserve" width="2000" height="1500" data-id="lg_J3oDTMJ6SwOSMn76FX" data-version="1" viewBox="0 0 2000 1500"><path fill="#e64a2e" stroke="transparent" d="M0 0h2000v1500H0z"/><g data-padding="20"><g transform="translate(-995.968 -729.202)scale(1.89823)"><rect width="341.96" height="557.597" x="480.011" y="99.956" fill="none" rx="0" ry="0" transform="translate(400.5 400.5)"/><path fill="#fff" d="M930.07 827.885q-10.6-33.86-10.6-73.37t10.6-76.14q10.84-37.58 28.91-61.2 18.8-24.81 43.37-39.03 24.82-14.46 50.12-14.46h2.41q27.95 0 51.8 12.53 16.38 8.68 26.02 17.59l1.93.24q24.09-1.92 31.8-30.6v139.27q-12.53-49.15-29.39-77.1-8.19-12.77-20.96-22.17-19.76-14.46-46.75-14.46-28.43 0-54.93 20.96-20.96 20.48-32.77 62.65-11.08 39.76-11.08 77.82v3.14q0 37.58 7.71 68.42 13.97 51.81 29.87 68.91 21.93 23.62 48.67 23.62 22.65 0 45.06-20.48 24.34-26.99 28.19-49.4 1.21-6.99 1.21-13.01 0-12.53-4.58-20.72l-1.21-1.69q-18.07-25.3-61.44-30.11h125.29q-2.41 25.78-9.64 48.67-10.6 34.21-28.91 58.55-18.07 24.09-43.37 38.79-25.06 14.69-52.52 14.69-27.47 0-52.53-14.57-25.06-14.58-43.37-38.91-18.31-24.58-28.91-58.43"/></g><path fill="transparent" stroke="transparent" stroke-width="2.016" d="M655.242 187.5h689.516v1125H655.242z"/></g></svg> 